<?xml version="1.0" standalone="no"?>
<!DOCTYPE svg PUBLIC "-//W3C//DTD SVG 20010904//EN"
 "http://www.w3.org/TR/2001/REC-SVG-20010904/DTD/svg10.dtd">
<svg version="1.0" xmlns="http://www.w3.org/2000/svg"
 width="1080.000000pt" height="236.000000pt" viewBox="0 0 1080.000000 236.000000"
 preserveAspectRatio="xMidYMid meet">
<metadata>
Created by potrace 1.16, written by Peter Selinger 2001-2019
</metadata>
<g transform="translate(0.000000,236.000000) scale(0.100000,-0.100000)"
fill="#000000" stroke="none">
<path d="M232 2037 l-122 -122 0 -565 0 -565 123 -123 122 -122 426 0 425 0
122 123 122 124 0 161 0 162 -200 0 -200 0 0 -88 0 -88 -43 -42 -43 -42 -177
0 -178 0 -45 37 -44 37 0 420 0 420 42 43 42 43 176 0 176 0 37 -38 37 -38 0
-92 0 -92 200 0 200 0 0 163 0 162 -123 123 -122 122 -415 0 -415 0 -123 -123z"/>
<path d="M4115 2054 l-115 -107 0 -128 0 -129 -50 0 -51 0 3 -127 3 -128 48
-3 47 -3 0 -445 0 -444 205 0 205 0 0 445 0 445 100 0 100 0 0 130 0 130 -100
0 -100 0 0 88 c0 84 1 90 28 115 27 26 33 27 125 27 l97 0 0 120 0 120 -215 0
-215 0 -115 -106z"/>
<path d="M4942 1993 c-5 -10 -33 -82 -63 -160 l-54 -143 -47 0 -48 0 0 -130 0
-130 40 0 40 0 0 -338 0 -339 114 -106 114 -107 206 0 206 0 0 130 0 130 -83
0 c-81 0 -84 1 -115 33 l-32 33 0 282 0 282 90 0 90 0 0 130 0 130 -90 0 -90
0 0 160 0 160 -135 0 c-118 0 -135 -2 -143 -17z"/>
<path d="M1620 1115 l0 -575 205 0 205 0 0 351 0 351 43 39 42 38 168 1 167 0
-2 183 -3 182 -110 3 -111 3 -94 -88 -95 -88 -5 85 -5 85 -202 3 -203 2 0
-575z"/>
<path d="M2670 1560 l0 -130 286 0 286 0 39 -42 c30 -34 38 -51 39 -80 l0 -38
-273 0 -272 0 -123 -123 -122 -122 0 -120 0 -120 123 -123 122 -122 195 0 195
0 77 77 78 78 0 -78 0 -77 205 0 205 0 0 453 0 452 -123 123 -122 122 -408 0
-407 0 0 -130z m650 -554 l0 -64 -92 -86 -92 -86 -60 0 c-56 1 -64 4 -98 35
-38 35 -38 36 -38 112 0 75 1 78 37 115 l37 38 153 0 153 0 0 -64z"/>
<path d="M5620 1237 l0 -452 123 -123 122 -122 183 0 183 0 92 74 92 75 3 -75
3 -74 204 0 205 0 0 575 0 575 -205 0 -205 0 0 -365 0 -364 -110 -96 c-107
-92 -113 -95 -159 -95 -44 0 -52 4 -85 40 l-36 40 0 420 0 420 -205 0 -205 0
0 -453z"/>
<path d="M7180 1560 l0 -130 286 0 286 0 39 -42 c30 -34 38 -51 39 -80 l0 -38
-273 0 -272 0 -123 -123 -122 -122 0 -120 0 -120 123 -123 122 -122 195 0 195
0 77 77 78 78 0 -78 0 -77 205 0 205 0 0 453 0 452 -123 123 -122 122 -408 0
-407 0 0 -130z m650 -554 l0 -64 -92 -86 -92 -86 -60 0 c-56 1 -64 4 -98 35
-38 35 -38 36 -38 112 0 75 1 78 37 115 l37 38 153 0 153 0 0 -64z"/>
<path d="M8510 1115 l0 -575 205 0 205 0 0 351 0 351 43 39 42 38 168 1 167 0
-2 183 -3 182 -110 3 -111 3 -94 -88 -95 -88 -5 85 -5 85 -202 3 -203 2 0
-575z"/>
<path d="M9480 1237 l0 -452 123 -123 122 -122 180 0 180 0 105 84 105 84 3
-111 3 -110 -38 -39 -37 -38 -328 0 -328 0 0 -140 0 -140 433 0 432 0 123 123
122 122 0 658 0 657 -190 0 -190 0 0 -354 0 -353 -124 -107 c-114 -97 -128
-106 -165 -106 -33 0 -49 7 -81 36 l-40 36 0 424 0 424 -205 0 -205 0 0 -453z"/>
</g>
</svg>
